Complete name                            : Great Dictator, The (1940) The Speach.mkv
Format                                   : Matroska
Format version                           : Version 2
File size                                : 164 MiB
Duration                                 : 3mn 44s
Overall bit rate                         : 6 103 Kbps
Encoded date                             : UTC 2011-06-01 20:21:01
Writing application                      : mkvmerge v3.4.0 ('Rapunzel') built on May 15 2010 09:38:20
Writing library                          : libebml v0.8.0 + libmatroska v0.9.0

Video
ID                                       : 1
Format                                   : AVC
Format/Info                              : Advanced Video Codec
Format profile                           : High@L4.1
Format settings, CABAC                   : Yes
Format settings, ReFrames                : 5 frames
Codec ID                                 : V_MPEG4/ISO/AVC
Duration                                 : 3mn 44s
Bit rate                                 : 5 534 Kbps
Width                                    : 960 pixels
Height                                   : 720 pixels
Display aspect ratio                     : 4:3
Frame rate                               : 23.976 fps
Color space                              : YUV
Chroma subsampling                       : 4:2:0
Bit depth                                : 8 bits
Scan type                                : Progressive
Bits/(Pixel*Frame)                       : 0.334
Stream size                              : 148 MiB (91%)
Default                                  : No
Forced                                   : No

Audio
ID                                       : 2
Format                                   : AC-3
Format/Info                              : Audio Coding 3
Mode extension                           : CM (complete main)
Codec ID                                 : A_AC3
Duration                                 : 3mn 44s
Bit rate mode                            : Constant
Bit rate                                 : 448 Kbps
Channel(s)                               : 2 channels
Channel positions                        : Front: L R
Sampling rate                            : 48.0 KHz
Bit depth                                : 16 bits
Compression mode                         : Lossy
Stream size                              : 12.0 MiB (7%)
Language                                 : English
Default                                  : Yes
Forced                                   : No

Text
ID                                       : 3
Format                                   : UTF-8
Codec ID                                 : S_TEXT/UTF8
Codec ID/Info                            : UTF-8 Plain Text
Language                                 : English
Default                                  : Yes
Forced                                   : No

